<svg xmlns="http://www.w3.org/2000/svg" viewBox="0 0 520 120" fill="none">
  <defs>
    <style>
      @import url('https://fonts.googleapis.com/css2?family=Noto+Sans+JP:wght@400&amp;family=Noto+Serif:wght@400&amp;display=swap');
      .en { font-family: 'Noto Serif', 'Georgia', serif; font-size: 38px; fill: #4a3f35; letter-spacing: 2px; }
      .ja { font-family: 'Noto Sans JP', sans-serif; font-size: 16px; fill: #7a6e60; letter-spacing: 3px; }
    </style>
  </defs>

  <!-- Wheat + Bread line art icon -->
  <g transform="translate(10, 8)" stroke="#4a3f35" stroke-width="1.8" fill="none" stroke-linecap="round" stroke-linejoin="round">
    <!-- Wheat stalk - main stem -->
    <path d="M45 100 C42 80, 48 50, 52 25"/>
    <!-- Wheat stalk - loop at bottom -->
    <path d="M45 100 C40 95, 36 88, 42 82"/>
    <ellipse cx="38" cy="90" rx="6" ry="10" transform="rotate(-25 38 90)"/>

    <!-- Wheat grains left -->
    <ellipse cx="46" cy="52" rx="4" ry="10" transform="rotate(-18 46 52)"/>
    <ellipse cx="44" cy="65" rx="4" ry="10" transform="rotate(-12 44 65)"/>
    <ellipse cx="42" cy="78" rx="3.5" ry="9" transform="rotate(-6 42 78)"/>

    <!-- Wheat grains right -->
    <ellipse cx="56" cy="48" rx="4" ry="10" transform="rotate(18 56 48)"/>
    <ellipse cx="57" cy="61" rx="4" ry="10" transform="rotate(12 57 61)"/>
    <ellipse cx="56" cy="74" rx="3.5" ry="9" transform="rotate(6 56 74)"/>

    <!-- Wheat top -->
    <path d="M52 25 L51 16"/>
    <ellipse cx="49" cy="20" rx="3" ry="7" transform="rotate(-15 49 20)"/>
    <ellipse cx="54" cy="18" rx="3" ry="7" transform="rotate(15 54 18)"/>

    <!-- Wheat top awns -->
    <path d="M50 14 L46 4"/>
    <path d="M52 12 L52 2"/>
    <path d="M54 14 L58 4"/>

    <!-- Bread -->
    <path d="M52 72 C72 62, 88 60, 95 68 C98 72, 98 78, 95 82 C90 86, 58 86, 52 82 C50 80, 50 76, 52 72 Z"/>
    <!-- Bread score lines -->
    <path d="M68 68 C74 65, 80 66, 85 70"/>
    <path d="M74 74 C78 72, 84 72, 88 75"/>
  </g>

  <!-- Text -->
  <text x="125" y="62" class="en">Komugi Homepage</text>
  <text x="127" y="90" class="ja">こむぎとホームページ</text>
</svg>
